<?xml version="1.0" encoding="UTF-8"?> <svg xmlns="http://www.w3.org/2000/svg" xmlns:xlink="http://www.w3.org/1999/xlink" id="Layer_1" data-name="Layer 1" viewBox="0 0 380 108"><defs><style>.cls-1{fill:#88593b;}.cls-2{fill:#13694e;}.cls-3{fill:#f49020;}.cls-4{fill:#efb31d;}.cls-5{clip-path:url(#clip-path);}</style><clipPath id="clip-path"><path class="cls-1" d="M67.79,50.47c5.26,0,1.56-12.58.14-12.58s-6.47,12.58-.14,12.58"></path></clipPath></defs><title>NCPSA-header-logo</title><path class="cls-2" d="M66.77,13.77h19.7l44.35,54.41V26.34q0-6.69-1.5-8.35c-1.32-1.5-3.4-2.24-6.26-2.24h-2.51v-2H145.8v2h-2.56c-3.07,0-5.25.92-6.53,2.78q-1.19,1.71-1.18,7.81V87.5h-1.92L85.77,29.07V73.75q0,6.69,1.44,8.34,2,2.25,6.26,2.25H96v2H70.79v-2H73.3q4.67,0,6.58-2.78c.79-1.14,1.18-3.75,1.18-7.81V23.29a33.08,33.08,0,0,0-4.79-4.87,17.46,17.46,0,0,0-4.79-2.19,17.07,17.07,0,0,0-4.71-.48Z"></path><path class="cls-2" d="M200.4,12.11l1.66,24.66H200.4q-3.32-11.07-9.47-15.94A23.06,23.06,0,0,0,176.16,16a24.06,24.06,0,0,0-13.06,3.66q-5.82,3.68-9.17,11.7t-3.35,20a42.25,42.25,0,0,0,3.16,17.07,23.61,23.61,0,0,0,9.5,11.08,27.27,27.27,0,0,0,14.47,3.85,25.16,25.16,0,0,0,12.47-3q5.4-3,11.88-12l1.66,1.07Q198.26,79,191,83.48A32.19,32.19,0,0,1,173.7,88q-18,0-27.93-13.38a38.17,38.17,0,0,1-7.39-23.43,41.69,41.69,0,0,1,4.87-20,35.26,35.26,0,0,1,13.41-14.1,36.15,36.15,0,0,1,18.64-5A34.14,34.14,0,0,1,190.82,16,8.55,8.55,0,0,0,194,17.14a3.55,3.55,0,0,0,2.52-1,8.46,8.46,0,0,0,2-4Z"></path><path class="cls-2" d="M304.14,12.11V37.2h-2a31.57,31.57,0,0,0-3.45-11.5,18,18,0,0,0-7.09-6.8,19.71,19.71,0,0,0-9.53-2.51,13,13,0,0,0-9.2,3.39,10.35,10.35,0,0,0-3.64,7.74,9.17,9.17,0,0,0,2.3,6q3.31,4,15.79,10.7,10.16,5.46,13.88,8.38A20.39,20.39,0,0,1,307,59.51a18.23,18.23,0,0,1,2,8.3A18.77,18.77,0,0,1,302.56,82q-6.4,6-16.46,6a34.83,34.83,0,0,1-5.93-.48,61.42,61.42,0,0,1-6.88-2,30.54,30.54,0,0,0-6.61-1.69,2.8,2.8,0,0,0-2.11.8A6.39,6.39,0,0,0,263.42,88h-2V63.1h2q1.38,7.82,3.74,11.69a18,18,0,0,0,7.2,6.45A22.35,22.35,0,0,0,285,83.81q6.69,0,10.57-3.54a10.94,10.94,0,0,0,3.88-8.34A11.33,11.33,0,0,0,298,66.52a16.21,16.21,0,0,0-4.58-5.08A131.52,131.52,0,0,0,282,54.62a111,111,0,0,1-13.24-8.32,22.35,22.35,0,0,1-6-6.85,16.94,16.94,0,0,1-2-8.24,17.87,17.87,0,0,1,6-13.46q6-5.64,15.24-5.64a30.61,30.61,0,0,1,12.26,2.83,12.67,12.67,0,0,0,4.22,1.34,3.21,3.21,0,0,0,2.28-.83,6.63,6.63,0,0,0,1.42-3.34Z"></path><path class="cls-2" d="M224.2,52.34V73.48c0,4.57.5,7.4,1.5,8.51q2,2.36,6.15,2.35h2.78v2H203.55v-2h2.73c3.06,0,5.26-1,6.58-3q1.06-1.65,1.07-7.86V26.61c0-4.57-.48-7.4-1.45-8.51q-2.08-2.36-6.2-2.35h-2.73v-2h26.59q9.74,0,15.36,2A21.23,21.23,0,0,1,255,22.54a17.4,17.4,0,0,1,3.85,11.29q0,8.88-5.86,14.45T236.4,53.84a46.51,46.51,0,0,1-5.67-.37C228.69,53.22,226.52,52.84,224.2,52.34Zm0-3.05c1.89.36,3.57.63,5,.81a31.09,31.09,0,0,0,3.75.26,12.71,12.71,0,0,0,9.6-4.3,15.66,15.66,0,0,0,4-11.16,20,20,0,0,0-1.93-8.75,13.25,13.25,0,0,0-5.45-6,16,16,0,0,0-8-2,31.54,31.54,0,0,0-7,1Z"></path><path class="cls-2" d="M353.08,62H325l-4.92,11.45a18.2,18.2,0,0,0-1.82,6.31,3.65,3.65,0,0,0,1.58,2.92q1.57,1.26,6.82,1.63v2H303.8v-2c3-.53,5-1.23,5.89-2.09q2.73-2.56,6-10.43l25.53-59.71h1.87l25.26,60.35q3,7.28,5.53,9.45a11.33,11.33,0,0,0,6.93,2.43v2H352.23v-2q4.33-.21,5.85-1.44a3.72,3.72,0,0,0,1.53-3q0-2.36-2.14-7.44Zm-1.5-4-12.3-29.32L326.65,58.07Z"></path><path class="cls-1" d="M15.5,93.55a.22.22,0,0,1,.16,0,.32.32,0,0,1,0,.19v11.89c0,.16-.09.25-.28.25H14a.46.46,0,0,1-.22,0,.48.48,0,0,1-.19-.15l-5.7-8.1q-.06-.11-.12-.09s-.06,0-.06.1v8.06c0,.14-.1.22-.29.22H6q-.3,0-.3-.27V93.84c0-.19.09-.29.26-.29H7.63a.72.72,0,0,1,.25,0,.62.62,0,0,1,.19.18l5.36,7.74c.05.08.1.11.15.11s.1-.05.1-.16V93.82a.24.24,0,0,1,.27-.27Z"></path><path class="cls-1" d="M20.1,106.09a2.89,2.89,0,0,1-2-.67,2.29,2.29,0,0,1-.74-1.76,2.52,2.52,0,0,1,1.23-2.2,6.63,6.63,0,0,1,3.46-.9l.83,0c.18,0,.27-.11.27-.25v-.39a1.45,1.45,0,0,0-.45-1.14,1.69,1.69,0,0,0-1.2-.41,2.19,2.19,0,0,0-2,1.1.53.53,0,0,1-.09.11.14.14,0,0,1-.11,0H19.2l-1.4-.35c-.09,0-.13-.08-.13-.15a.56.56,0,0,1,.06-.22,3,3,0,0,1,1.43-1.43,5.54,5.54,0,0,1,2.43-.49,4.27,4.27,0,0,1,2.74.73,2.56,2.56,0,0,1,.87,2.07v5.87a.54.54,0,0,1-.05.26.29.29,0,0,1-.23.08H23.5a.24.24,0,0,1-.21-.1.7.7,0,0,1-.1-.3l0-.5q0-.15-.12-.15a.53.53,0,0,0-.21.13A3.9,3.9,0,0,1,20.1,106.09Zm3-4.42a.25.25,0,0,0-.19-.06l-.69,0a4.53,4.53,0,0,0-1.94.52,1.35,1.35,0,0,0-.78,1.21,1.1,1.1,0,0,0,.41.9,1.72,1.72,0,0,0,1.1.34,2.29,2.29,0,0,0,1.51-.54,1.34,1.34,0,0,0,.64-1v-1.18A.34.34,0,0,0,23.08,101.67Z"></path><path class="cls-1" d="M30.08,98.61c-.12,0-.17.06-.17.18v4.45a1.2,1.2,0,0,0,.26.89,1.11,1.11,0,0,0,.84.26h1a.21.21,0,0,1,.17.07.24.24,0,0,1,.07.17l0,.86c0,.19-.11.3-.32.34a13.14,13.14,0,0,1-1.83.1,2.54,2.54,0,0,1-1.73-.53,2,2,0,0,1-.59-1.59v-5a.18.18,0,0,0-.2-.21H26.42a.23.23,0,0,1-.26-.25v-1c0-.15.08-.22.25-.22h1.23c.1,0,.15-.06.15-.17L28,94.35a.44.44,0,0,1,.06-.21.26.26,0,0,1,.17,0h1.49a.2.2,0,0,1,.16.07.28.28,0,0,1,.07.21v2.55a.13.13,0,0,0,.15.15H32c.17,0,.25.08.25.24v1c0,.16-.09.25-.28.25Z"></path><path class="cls-1" d="M35.59,95.45a.43.43,0,0,1-.09.3.43.43,0,0,1-.31.09H33.68c-.13,0-.21,0-.25-.09a.34.34,0,0,1-.07-.25V93.87c0-.21.09-.32.27-.32h1.71a.26.26,0,0,1,.19.08.33.33,0,0,1,.06.21Zm0,10.11a.36.36,0,0,1-.09.28.43.43,0,0,1-.31.09H33.71a.37.37,0,0,1-.25-.07.33.33,0,0,1-.07-.23V97.37c0-.19.09-.28.25-.28h1.69c.15,0,.23.09.23.27Z"></path><path class="cls-1" d="M39.06,105.52a4,4,0,0,1-1.56-1.61,5.34,5.34,0,0,1,0-4.76,4,4,0,0,1,1.57-1.64,4.68,4.68,0,0,1,4.55,0,4.11,4.11,0,0,1,1.55,1.65,5,5,0,0,1,.55,2.38,4.78,4.78,0,0,1-.56,2.35,4.05,4.05,0,0,1-1.56,1.62,4.39,4.39,0,0,1-2.28.58A4.49,4.49,0,0,1,39.06,105.52ZM43,103.81a4,4,0,0,0,.56-2.3A4.09,4.09,0,0,0,43,99.17a1.83,1.83,0,0,0-1.61-.81,1.88,1.88,0,0,0-1.63.81,4.09,4.09,0,0,0-.57,2.34,4,4,0,0,0,.57,2.3,1.9,1.9,0,0,0,1.63.8A1.85,1.85,0,0,0,43,103.81Z"></path><path class="cls-1" d="M47.23,105.86a.33.33,0,0,1-.07-.23V97.37c0-.19.08-.28.24-.28h1.67c.14,0,.21.08.21.25v.87c0,.06,0,.1,0,.11s.08,0,.14,0a7.48,7.48,0,0,1,1.45-1,3.29,3.29,0,0,1,1.46-.33,2.65,2.65,0,0,1,1.95.71A2.55,2.55,0,0,1,55,99.51v6.07a.32.32,0,0,1-.36.35H53.15a.29.29,0,0,1-.22-.07.33.33,0,0,1-.06-.23V99.89a1.37,1.37,0,0,0-.36-1,1.41,1.41,0,0,0-1-.36,2.09,2.09,0,0,0-1.06.27,5.25,5.25,0,0,0-1.08.87v5.93a.37.37,0,0,1-.08.26.47.47,0,0,1-.3.08H47.46A.35.35,0,0,1,47.23,105.86Z"></path><path class="cls-1" d="M59.06,106.09a2.89,2.89,0,0,1-2-.67,2.29,2.29,0,0,1-.74-1.76,2.52,2.52,0,0,1,1.23-2.2,6.63,6.63,0,0,1,3.46-.9l.83,0c.18,0,.27-.11.27-.25v-.39a1.45,1.45,0,0,0-.45-1.14,1.69,1.69,0,0,0-1.2-.41,2.16,2.16,0,0,0-2,1.1l-.1.11a.12.12,0,0,1-.11,0h-.13l-1.4-.35c-.09,0-.13-.08-.13-.15a.56.56,0,0,1,.06-.22,3,3,0,0,1,1.43-1.43,5.54,5.54,0,0,1,2.43-.49,4.27,4.27,0,0,1,2.74.73,2.56,2.56,0,0,1,.87,2.07v5.87a.44.44,0,0,1,0,.26.29.29,0,0,1-.23.08H62.46a.24.24,0,0,1-.21-.1.7.7,0,0,1-.1-.3l0-.5q0-.15-.12-.15a.53.53,0,0,0-.21.13A3.9,3.9,0,0,1,59.06,106.09Zm3-4.42a.25.25,0,0,0-.19-.06l-.69,0a4.53,4.53,0,0,0-1.94.52,1.35,1.35,0,0,0-.78,1.21,1.1,1.1,0,0,0,.41.9,1.72,1.72,0,0,0,1.1.34,2.29,2.29,0,0,0,1.51-.54,1.34,1.34,0,0,0,.64-1v-1.18A.34.34,0,0,0,62,101.67Z"></path><path class="cls-1" d="M68.13,105.56a.42.42,0,0,1-.08.29.47.47,0,0,1-.3.08H66.28a.43.43,0,0,1-.26-.07.29.29,0,0,1-.07-.23l0-11.79c0-.19.08-.29.25-.29H67.9c.15,0,.23.09.23.27Z"></path><path class="cls-1" d="M81,93.86a4.79,4.79,0,0,1,1.72,1.29A3.8,3.8,0,0,1,83.52,97a1.12,1.12,0,0,1,0,.2.18.18,0,0,1,0,.14l-.14,0-1.9.13a.26.26,0,0,1-.16,0,.38.38,0,0,1-.08-.2,2.8,2.8,0,0,0-.83-1.54,2.32,2.32,0,0,0-1.62-.57q-3,0-3,4.57a6.19,6.19,0,0,0,.75,3.42,2.56,2.56,0,0,0,2.28,1.11,3,3,0,0,0,1.79-.52,3.61,3.61,0,0,0,1.18-1.7c0-.08.13-.11.3-.08l1.42.3a.28.28,0,0,1,.13.11.41.41,0,0,1,0,.26,4.73,4.73,0,0,1-.81,1.55,5.06,5.06,0,0,1-4.13,1.93,5.33,5.33,0,0,1-2.93-.79,5.05,5.05,0,0,1-1.92-2.25,8,8,0,0,1-.67-3.38,7.73,7.73,0,0,1,.67-3.35,5,5,0,0,1,1.91-2.18,5.54,5.54,0,0,1,2.92-.75A5.29,5.29,0,0,1,81,93.86Z"></path><path class="cls-1" d="M86.89,105.52a4,4,0,0,1-1.55-1.61,4.88,4.88,0,0,1-.55-2.35,5,5,0,0,1,.57-2.41,4,4,0,0,1,1.56-1.64,4.7,4.7,0,0,1,4.56,0A4.18,4.18,0,0,1,93,99.16a5.12,5.12,0,0,1,.55,2.38,4.89,4.89,0,0,1-.56,2.35,4.05,4.05,0,0,1-1.56,1.62,4.44,4.44,0,0,1-2.28.58A4.55,4.55,0,0,1,86.89,105.52Zm3.93-1.71a4,4,0,0,0,.56-2.3,4.09,4.09,0,0,0-.57-2.34,2,2,0,0,0-3.24,0,4,4,0,0,0-.58,2.34,3.87,3.87,0,0,0,.58,2.3,2.05,2.05,0,0,0,3.25,0Z"></path><path class="cls-1" d="M100.56,103.36V97.42c0-.22.13-.33.38-.33h1.5a.28.28,0,0,1,.31.32l0,8.25c0,.18-.08.27-.23.27h-1.64c-.15,0-.23-.09-.23-.25v-.89a.1.1,0,0,0,0-.1s-.07,0-.12,0a5,5,0,0,1-1.46,1,3.49,3.49,0,0,1-1.47.31,2.55,2.55,0,0,1-1.86-.71,2.6,2.6,0,0,1-.73-1.92v-6a.31.31,0,0,1,.35-.35h1.54a.29.29,0,0,1,.22.07.4.4,0,0,1,.06.25v5.68a1.4,1.4,0,0,0,.37,1,1.27,1.27,0,0,0,1,.39A3.09,3.09,0,0,0,100.56,103.36Z"></path><path class="cls-1" d="M104.66,105.86a.33.33,0,0,1-.06-.23V97.37c0-.19.08-.28.23-.28h1.67c.14,0,.22.08.22.25v.87c0,.06,0,.1,0,.11s.07,0,.13,0a7.52,7.52,0,0,1,1.46-1,3.26,3.26,0,0,1,1.46-.33,2.63,2.63,0,0,1,1.94.71,2.55,2.55,0,0,1,.71,1.88v6.07a.31.31,0,0,1-.35.35h-1.54a.3.3,0,0,1-.22-.07.33.33,0,0,1-.06-.23V99.89a1.37,1.37,0,0,0-.36-1,1.4,1.4,0,0,0-1-.36,2.12,2.12,0,0,0-1.06.27,5.23,5.23,0,0,0-1.07.87v5.93a.33.33,0,0,1-.09.26.43.43,0,0,1-.3.08H104.9A.38.38,0,0,1,104.66,105.86Z"></path><path class="cls-1" d="M120.5,97.61a3.82,3.82,0,0,1,1.34,1.68l0,.15c0,.09-.07.14-.2.17l-1.47.18-.07,0c-.07,0-.13-.06-.16-.17a4.38,4.38,0,0,0-.76-1,1.46,1.46,0,0,0-1-.31,1.9,1.9,0,0,0-1.63.82,3.86,3.86,0,0,0-.6,2.32,3.82,3.82,0,0,0,.61,2.34,2,2,0,0,0,1.72.81,1.89,1.89,0,0,0,1.2-.37,3.89,3.89,0,0,0,.93-1.12.26.26,0,0,1,.11-.08.33.33,0,0,1,.16,0l1,.28c.11,0,.15.13.1.28a4.36,4.36,0,0,1-1.35,1.7,3.79,3.79,0,0,1-2.38.72,4.43,4.43,0,0,1-2.25-.57,4.14,4.14,0,0,1-1.55-1.61,5.32,5.32,0,0,1,0-4.77,4.09,4.09,0,0,1,1.56-1.63,4.29,4.29,0,0,1,2.23-.59A3.81,3.81,0,0,1,120.5,97.61Z"></path><path class="cls-1" d="M125.34,95.45a.43.43,0,0,1-.09.3.44.44,0,0,1-.31.09h-1.52a.29.29,0,0,1-.25-.09.39.39,0,0,1-.07-.25V93.87c0-.21.09-.32.27-.32h1.72a.22.22,0,0,1,.18.08.28.28,0,0,1,.07.21Zm0,10.11a.36.36,0,0,1-.1.28.43.43,0,0,1-.31.09h-1.45a.39.39,0,0,1-.25-.07.33.33,0,0,1-.06-.23V97.37c0-.19.08-.28.25-.28h1.68q.24,0,.24.27Z"></path><path class="cls-1" d="M129.34,105.56a.42.42,0,0,1-.08.29.47.47,0,0,1-.3.08h-1.47a.43.43,0,0,1-.26-.07.29.29,0,0,1-.08-.23l0-11.79c0-.19.09-.29.25-.29h1.66c.15,0,.23.09.23.27Z"></path><path class="cls-1" d="M139.78,97.34v1c0,.14-.09.22-.25.22H138c-.11,0-.17,0-.17.16v6.87c0,.19-.08.29-.25.29h-1.68q-.24,0-.24-.27v-6.9c0-.1,0-.15-.11-.15h-1.36c-.16,0-.25-.08-.25-.22v-1c0-.17.09-.25.27-.25h1.27c.12,0,.18-.07.18-.22V95.79a2.2,2.2,0,0,1,.6-1.65,2.34,2.34,0,0,1,1.7-.59h1.59c.21,0,.31.1.31.3l0,.94a.23.23,0,0,1-.06.16.19.19,0,0,1-.17.07h-1a.79.79,0,0,0-.66.29,1.26,1.26,0,0,0-.22.78v.83c0,.11.06.17.18.17h1.57C139.69,97.09,139.78,97.17,139.78,97.34Z"></path><path class="cls-1" d="M142.32,105.52a3.94,3.94,0,0,1-1.55-1.61,4.88,4.88,0,0,1-.55-2.35,5,5,0,0,1,.56-2.41,4,4,0,0,1,1.57-1.64,4.68,4.68,0,0,1,4.55,0,4,4,0,0,1,1.55,1.65,5,5,0,0,1,.55,2.38,4.88,4.88,0,0,1-.55,2.35,4.19,4.19,0,0,1-1.56,1.62,4.46,4.46,0,0,1-2.29.58A4.51,4.51,0,0,1,142.32,105.52Zm3.92-1.71a4,4,0,0,0,.56-2.3,4.17,4.17,0,0,0-.56-2.34,1.86,1.86,0,0,0-1.62-.81,1.89,1.89,0,0,0-1.63.81,4.09,4.09,0,0,0-.57,2.34,4,4,0,0,0,.57,2.3,1.91,1.91,0,0,0,1.63.8A1.85,1.85,0,0,0,146.24,103.81Z"></path><path class="cls-1" d="M150.43,105.63V97.37c0-.19.07-.28.23-.28h1.62c.15,0,.23.08.23.25v1c0,.08,0,.13.08.13s.08,0,.14-.08a4.29,4.29,0,0,1,1.21-1.1,2.6,2.6,0,0,1,1.31-.39q.6,0,.6.27v1.6c0,.16-.08.22-.22.2a4.16,4.16,0,0,0-1-.12,2,2,0,0,0-.91.24,2.27,2.27,0,0,0-.79.6,1.25,1.25,0,0,0-.31.78v5.1c0,.23-.12.34-.38.34h-1.48A.27.27,0,0,1,150.43,105.63Z"></path><path class="cls-1" d="M169.21,100.07a5.08,5.08,0,0,1-3.26,1h-2.62c-.11,0-.16.06-.16.17v4.38c0,.23-.13.34-.37.34H161a.27.27,0,0,1-.3-.3V93.84c0-.19.08-.29.25-.29h4.72a5.79,5.79,0,0,1,3.44,1,3.25,3.25,0,0,1,1.33,2.82A3.29,3.29,0,0,1,169.21,100.07Zm-1.94-4.26a2.88,2.88,0,0,0-1.74-.47h-2.08c-.19,0-.28.09-.28.26V99a.33.33,0,0,0,.05.22.2.2,0,0,0,.16.07h2.25a2.5,2.5,0,0,0,1.66-.51,1.81,1.81,0,0,0,.61-1.48A1.72,1.72,0,0,0,167.27,95.81Z"></path><path class="cls-1" d="M171.82,105.63V97.37c0-.19.07-.28.23-.28h1.62c.15,0,.23.08.23.25v1c0,.08,0,.13.08.13s.08,0,.14-.08a4.29,4.29,0,0,1,1.21-1.1,2.6,2.6,0,0,1,1.31-.39q.6,0,.6.27v1.6c0,.16-.08.22-.22.2a4.18,4.18,0,0,0-1-.12,2,2,0,0,0-.9.24,2.27,2.27,0,0,0-.79.6,1.25,1.25,0,0,0-.31.78v5.1c0,.23-.12.34-.38.34h-1.48A.27.27,0,0,1,171.82,105.63Z"></path><path class="cls-1" d="M180.52,95.45a.43.43,0,0,1-.09.3.43.43,0,0,1-.31.09H178.6a.3.3,0,0,1-.25-.09.4.4,0,0,1-.06-.25V93.87c0-.21.09-.32.26-.32h1.72a.26.26,0,0,1,.19.08.33.33,0,0,1,.06.21Zm0,10.11a.36.36,0,0,1-.09.28.44.44,0,0,1-.31.09h-1.45a.37.37,0,0,1-.25-.07.29.29,0,0,1-.07-.23V97.37c0-.19.08-.28.25-.28h1.69c.15,0,.23.09.23.27Z"></path><path class="cls-1" d="M190.19,97.19a.26.26,0,0,1,0,.23l-3.32,8.19a.69.69,0,0,1-.19.24.53.53,0,0,1-.3.08h-1a.54.54,0,0,1-.31-.08.7.7,0,0,1-.19-.22l-3.32-8.19a.29.29,0,0,1,0-.12.22.22,0,0,1,.07-.16.24.24,0,0,1,.18-.07h1.76a.33.33,0,0,1,.33.25l2.15,5.47c0,.11.07.16.12.16s.09-.06.15-.18l2.13-5.47a.32.32,0,0,1,.32-.23H190A.21.21,0,0,1,190.19,97.19Z"></path><path class="cls-1" d="M193.37,106.09a2.89,2.89,0,0,1-2-.67,2.29,2.29,0,0,1-.74-1.76,2.52,2.52,0,0,1,1.23-2.2,6.63,6.63,0,0,1,3.46-.9l.83,0c.18,0,.27-.11.27-.25v-.39a1.45,1.45,0,0,0-.45-1.14,1.7,1.7,0,0,0-1.21-.41,2.19,2.19,0,0,0-1.95,1.1.53.53,0,0,1-.09.11.14.14,0,0,1-.11,0h-.13l-1.4-.35c-.09,0-.13-.08-.13-.15a.56.56,0,0,1,.06-.22,3,3,0,0,1,1.43-1.43,5.52,5.52,0,0,1,2.42-.49,4.31,4.31,0,0,1,2.75.73,2.56,2.56,0,0,1,.87,2.07v5.87a.54.54,0,0,1-.05.26.29.29,0,0,1-.23.08h-1.42a.24.24,0,0,1-.21-.1.7.7,0,0,1-.1-.3l0-.5q0-.15-.12-.15a.53.53,0,0,0-.21.13A3.9,3.9,0,0,1,193.37,106.09Zm3-4.42a.27.27,0,0,0-.19-.06l-.69,0a4.53,4.53,0,0,0-1.94.52,1.35,1.35,0,0,0-.78,1.21,1.1,1.1,0,0,0,.41.9,1.69,1.69,0,0,0,1.09.34,2.3,2.3,0,0,0,1.52-.54,1.37,1.37,0,0,0,.64-1v-1.18A.34.34,0,0,0,196.35,101.67Z"></path><path class="cls-1" d="M203.34,98.61c-.11,0-.16.06-.16.18v4.45a1.2,1.2,0,0,0,.26.89,1.11,1.11,0,0,0,.84.26h1a.22.22,0,0,1,.17.07.24.24,0,0,1,.07.17l0,.86c0,.19-.11.3-.32.34a13.14,13.14,0,0,1-1.83.1,2.54,2.54,0,0,1-1.73-.53,2,2,0,0,1-.59-1.59v-5a.18.18,0,0,0-.2-.21h-1.12c-.18,0-.26-.09-.26-.25v-1c0-.15.08-.22.25-.22h1.23c.1,0,.15-.06.15-.17l.22-2.57a.44.44,0,0,1,.06-.21.26.26,0,0,1,.17,0H203a.21.21,0,0,1,.17.07.33.33,0,0,1,.07.21v2.55a.13.13,0,0,0,.15.15h1.88c.17,0,.25.08.25.24v1c0,.16-.09.25-.28.25Z"></path><path class="cls-1" d="M208.61,103.42a2.25,2.25,0,0,0,.88.85,2.63,2.63,0,0,0,2.46,0,3.25,3.25,0,0,0,1.06-.9c.06-.06.1-.09.14-.09a.5.5,0,0,1,.15,0l1,.45q.12.06.12.15a.25.25,0,0,1-.07.15,4.52,4.52,0,0,1-1.66,1.54,4.86,4.86,0,0,1-2.24.46,4.69,4.69,0,0,1-2.28-.56,4.07,4.07,0,0,1-1.57-1.59,4.67,4.67,0,0,1-.57-2.32,5,5,0,0,1,.59-2.46,4,4,0,0,1,1.58-1.65,4.59,4.59,0,0,1,4.43,0,3.74,3.74,0,0,1,1.48,1.59,5.46,5.46,0,0,1,.53,2.48v.07a.41.41,0,0,1-.05.23.35.35,0,0,1-.22.08h-5.9c-.13,0-.19.09-.19.27A2.4,2.4,0,0,0,208.61,103.42Zm3.64-2.73a.39.39,0,0,0,.22,0s.06-.09.06-.19a2.54,2.54,0,0,0-.23-1,2,2,0,0,0-.7-.81,1.8,1.8,0,0,0-1.09-.32,2,2,0,0,0-1.59.69,2.41,2.41,0,0,0-.59,1.71Z"></path><path class="cls-1" d="M225.57,95.45a3.43,3.43,0,0,0-1.54-.3,2.91,2.91,0,0,0-1.69.43,1.36,1.36,0,0,0-.59,1.16c0,.68.49,1.17,1.48,1.48l2.57.77q2.89.87,2.89,3.42a3.33,3.33,0,0,1-.59,2,3.74,3.74,0,0,1-1.66,1.28,6.52,6.52,0,0,1-2.54.45,7.14,7.14,0,0,1-2.92-.56A4.33,4.33,0,0,1,219,104a1,1,0,0,1-.06-.2.31.31,0,0,1,.16-.25l1.05-.74a.82.82,0,0,1,.29-.1.24.24,0,0,1,.21.12A4.2,4.2,0,0,0,222,104a3.7,3.7,0,0,0,1.76.35,3.74,3.74,0,0,0,1.89-.4,1.33,1.33,0,0,0,.68-1.22,1.28,1.28,0,0,0-.34-.9,3,3,0,0,0-1.21-.65l-2.52-.76a4.19,4.19,0,0,1-2.12-1.33,3.15,3.15,0,0,1-.73-2,3.24,3.24,0,0,1,.57-1.89,3.69,3.69,0,0,1,1.61-1.3,5.81,5.81,0,0,1,2.4-.46,6.41,6.41,0,0,1,2.43.45,4.41,4.41,0,0,1,1.76,1.26.41.41,0,0,1,.1.22.22.22,0,0,1-.1.17l-1.18.88a.27.27,0,0,1-.14,0s-.13,0-.23-.17A3.26,3.26,0,0,0,225.57,95.45Z"></path><path class="cls-1" d="M236.53,97.61a3.82,3.82,0,0,1,1.34,1.68l0,.15c0,.09-.07.14-.2.17l-1.47.18-.07,0c-.07,0-.13-.06-.16-.17a4.38,4.38,0,0,0-.76-1,1.46,1.46,0,0,0-1-.31,1.9,1.9,0,0,0-1.63.82,3.86,3.86,0,0,0-.6,2.32,3.82,3.82,0,0,0,.61,2.34,2,2,0,0,0,1.72.81,1.89,1.89,0,0,0,1.2-.37,3.74,3.74,0,0,0,.93-1.12.26.26,0,0,1,.11-.08.33.33,0,0,1,.16,0l1.05.28c.11,0,.15.13.1.28a4.36,4.36,0,0,1-1.35,1.7,3.79,3.79,0,0,1-2.38.72,4.45,4.45,0,0,1-2.25-.57,4.14,4.14,0,0,1-1.55-1.61,5.32,5.32,0,0,1,0-4.77A4.09,4.09,0,0,1,232,97.51a4.29,4.29,0,0,1,2.23-.59A3.81,3.81,0,0,1,236.53,97.61Z"></path><path class="cls-1" d="M239.19,105.63V93.84c0-.19.08-.29.25-.29h1.65c.14,0,.21.09.21.25v4.34a.12.12,0,0,0,0,.12s.08,0,.14-.05a6.55,6.55,0,0,1,1.49-1,3.55,3.55,0,0,1,1.43-.29,2.4,2.4,0,0,1,2.65,2.62v6a.31.31,0,0,1-.35.35h-1.54a.3.3,0,0,1-.22-.07.33.33,0,0,1-.06-.23V99.89a1.41,1.41,0,0,0-.35-1,1.37,1.37,0,0,0-1-.36,2.15,2.15,0,0,0-1.07.27,5.27,5.27,0,0,0-1.09.87v5.93a.33.33,0,0,1-.08.26.43.43,0,0,1-.28.08H239.5C239.29,105.93,239.19,105.83,239.19,105.63Z"></path><path class="cls-1" d="M250.5,105.52a4.07,4.07,0,0,1-1.55-1.61,5.34,5.34,0,0,1,0-4.76,4,4,0,0,1,1.57-1.64,4.38,4.38,0,0,1,2.26-.59,4.46,4.46,0,0,1,2.29.59,4.11,4.11,0,0,1,1.55,1.65,5,5,0,0,1,.55,2.38,4.89,4.89,0,0,1-.56,2.35,4.05,4.05,0,0,1-1.56,1.62,4.42,4.42,0,0,1-2.28.58A4.55,4.55,0,0,1,250.5,105.52Zm3.93-1.71a4,4,0,0,0,.56-2.3,4.09,4.09,0,0,0-.57-2.34,2,2,0,0,0-3.24,0,4.08,4.08,0,0,0-.58,2.34,3.94,3.94,0,0,0,.58,2.3,2.05,2.05,0,0,0,3.25,0Z"></path><path class="cls-1" d="M260.26,105.52a4.07,4.07,0,0,1-1.55-1.61,4.88,4.88,0,0,1-.55-2.35,5,5,0,0,1,.57-2.41,4,4,0,0,1,1.57-1.64,4.38,4.38,0,0,1,2.26-.59,4.46,4.46,0,0,1,2.29.59,4.18,4.18,0,0,1,1.55,1.65,5,5,0,0,1,.55,2.38,4.89,4.89,0,0,1-.56,2.35,4.05,4.05,0,0,1-1.56,1.62,4.44,4.44,0,0,1-2.28.58A4.55,4.55,0,0,1,260.26,105.52Zm3.93-1.71a4,4,0,0,0,.56-2.3,4.09,4.09,0,0,0-.57-2.34,2,2,0,0,0-3.24,0,4,4,0,0,0-.58,2.34,3.87,3.87,0,0,0,.58,2.3,2.05,2.05,0,0,0,3.25,0Z"></path><path class="cls-1" d="M270.52,105.56a.42.42,0,0,1-.08.29.47.47,0,0,1-.3.08h-1.47a.43.43,0,0,1-.26-.07.29.29,0,0,1-.07-.23l.05-11.79c0-.19.08-.29.25-.29h1.65c.15,0,.23.09.23.27Z"></path><path class="cls-1" d="M275.36,105.69a1.05,1.05,0,0,1,0-.18l4.2-11.66a.54.54,0,0,1,.15-.23.44.44,0,0,1,.25-.07h2.09a.43.43,0,0,1,.46.34l4.17,11.64a.49.49,0,0,1,0,.15.26.26,0,0,1-.05.17.21.21,0,0,1-.16.08h-2a.29.29,0,0,1-.3-.22l-1-2.7a.53.53,0,0,0-.06-.13.23.23,0,0,0-.14,0h-4.35a.19.19,0,0,0-.2.15l-1,2.74c0,.13-.13.2-.3.2h-1.62Q275.36,105.93,275.36,105.69Zm7.08-4.73c.1,0,.15,0,.15-.14a.49.49,0,0,0,0-.13L281,96.24c0-.08-.07-.12-.11-.12s-.09,0-.12.13l-1.62,4.44a.64.64,0,0,0,0,.15c0,.08.06.12.17.12Z"></path><path class="cls-1" d="M294,97.61a3.73,3.73,0,0,1,1.33,1.68l0,.15c0,.09-.07.14-.2.17l-1.47.18-.07,0c-.07,0-.13-.06-.16-.17a4.38,4.38,0,0,0-.76-1,1.46,1.46,0,0,0-1-.31,1.92,1.92,0,0,0-1.64.82,3.86,3.86,0,0,0-.6,2.32,3.81,3.81,0,0,0,.62,2.34,2,2,0,0,0,1.72.81,1.89,1.89,0,0,0,1.2-.37,3.89,3.89,0,0,0,.93-1.12.26.26,0,0,1,.11-.08.33.33,0,0,1,.16,0l1.05.28c.11,0,.14.13.1.28a4.36,4.36,0,0,1-1.35,1.7,3.79,3.79,0,0,1-2.38.72,4.43,4.43,0,0,1-2.25-.57,4.07,4.07,0,0,1-1.55-1.61,5.32,5.32,0,0,1,0-4.77,4.09,4.09,0,0,1,1.56-1.63,4.29,4.29,0,0,1,2.23-.59A3.81,3.81,0,0,1,294,97.61Z"></path><path class="cls-1" d="M302.89,97.61a3.75,3.75,0,0,1,1.34,1.68l0,.15c0,.09-.06.14-.2.17l-1.47.18-.06,0c-.08,0-.14-.06-.17-.17a4.38,4.38,0,0,0-.76-1,1.46,1.46,0,0,0-1-.31,1.9,1.9,0,0,0-1.63.82,3.86,3.86,0,0,0-.6,2.32,3.75,3.75,0,0,0,.62,2.34,2,2,0,0,0,1.71.81,1.89,1.89,0,0,0,1.2-.37,3.75,3.75,0,0,0,.94-1.12.21.21,0,0,1,.11-.08.28.28,0,0,1,.15,0l1.06.28c.11,0,.14.13.1.28a4.3,4.3,0,0,1-1.36,1.7,3.77,3.77,0,0,1-2.38.72,4.42,4.42,0,0,1-2.24-.57,4.07,4.07,0,0,1-1.55-1.61,4.83,4.83,0,0,1-.56-2.37,5.06,5.06,0,0,1,.56-2.4,4.09,4.09,0,0,1,1.56-1.63,4.35,4.35,0,0,1,2.23-.59A3.81,3.81,0,0,1,302.89,97.61Z"></path><path class="cls-1" d="M305.55,105.63V97.37c0-.19.08-.28.23-.28h1.62c.16,0,.23.08.23.25v1c0,.08,0,.13.09.13s.07,0,.13-.08a4.33,4.33,0,0,1,1.22-1.1,2.56,2.56,0,0,1,1.3-.39q.6,0,.6.27v1.6c0,.16-.07.22-.22.2a4.1,4.1,0,0,0-1-.12,2,2,0,0,0-.91.24,2.14,2.14,0,0,0-.78.6,1.19,1.19,0,0,0-.31.78v5.1c0,.23-.13.34-.39.34h-1.48A.27.27,0,0,1,305.55,105.63Z"></path><path class="cls-1" d="M314.13,103.42a2.29,2.29,0,0,0,.87.85,2.65,2.65,0,0,0,2.47,0,3.35,3.35,0,0,0,1.06-.9c.06-.06.1-.09.13-.09a.37.37,0,0,1,.15,0l1,.45q.12.06.12.15a.25.25,0,0,1-.07.15,4.52,4.52,0,0,1-1.66,1.54,4.86,4.86,0,0,1-2.24.46,4.67,4.67,0,0,1-2.28-.56,4.07,4.07,0,0,1-1.57-1.59,4.67,4.67,0,0,1-.57-2.32,5.14,5.14,0,0,1,.58-2.46,4.08,4.08,0,0,1,1.59-1.65,4.59,4.59,0,0,1,4.43,0,3.8,3.8,0,0,1,1.48,1.59,5.46,5.46,0,0,1,.53,2.48v.07a.41.41,0,0,1-.05.23.35.35,0,0,1-.22.08H314q-.18,0-.18.27A2.4,2.4,0,0,0,314.13,103.42Zm3.63-2.73a.43.43,0,0,0,.23,0s.06-.09.06-.19a2.4,2.4,0,0,0-.24-1,1.93,1.93,0,0,0-.69-.81,1.8,1.8,0,0,0-1.09-.32,2,2,0,0,0-1.59.69,2.42,2.42,0,0,0-.6,1.71Z"></path><path class="cls-1" d="M327.41,105.63v-.55c0-.1,0-.15-.08-.15a.19.19,0,0,0-.13.08,4.53,4.53,0,0,1-1.08.77,3,3,0,0,1-1.44.31,3.31,3.31,0,0,1-1.83-.51,3.28,3.28,0,0,1-1.26-1.51,5.94,5.94,0,0,1-.46-2.48,5.7,5.7,0,0,1,.49-2.43A3.83,3.83,0,0,1,323,97.51a3.29,3.29,0,0,1,1.9-.59,3.1,3.1,0,0,1,1.23.23,3.81,3.81,0,0,1,1,.66.25.25,0,0,0,.18.08c.07,0,.1-.07.1-.22V93.82c0-.18.08-.27.23-.27h1.69c.17,0,.25.1.25.29v11.77a.33.33,0,0,1-.08.24.38.38,0,0,1-.27.08h-1.47C327.52,105.93,327.41,105.83,327.41,105.63Zm-.91-7a2,2,0,0,0-.95-.22,1.92,1.92,0,0,0-1.61.8,3.93,3.93,0,0,0-.61,2.4,3.88,3.88,0,0,0,.59,2.36,1.87,1.87,0,0,0,1.58.77,2,2,0,0,0,1.63-.86,1.42,1.42,0,0,0,.25-.79V99.27A3.49,3.49,0,0,0,326.5,98.58Z"></path><path class="cls-1" d="M333.62,95.45a.43.43,0,0,1-.09.3.43.43,0,0,1-.31.09h-1.51c-.13,0-.21,0-.25-.09a.34.34,0,0,1-.07-.25V93.87c0-.21.09-.32.27-.32h1.71a.26.26,0,0,1,.19.08.33.33,0,0,1,.06.21Zm0,10.11a.36.36,0,0,1-.09.28.44.44,0,0,1-.31.09h-1.45a.37.37,0,0,1-.25-.07.29.29,0,0,1-.07-.23V97.37c0-.19.09-.28.25-.28h1.69c.15,0,.23.09.23.27Z"></path><path class="cls-1" d="M338.59,98.61c-.11,0-.17.06-.17.18v4.45a1.24,1.24,0,0,0,.26.89,1.11,1.11,0,0,0,.84.26h1a.24.24,0,0,1,.24.24l0,.86c0,.19-.11.3-.32.34a13.14,13.14,0,0,1-1.83.1,2.54,2.54,0,0,1-1.73-.53,2,2,0,0,1-.59-1.59v-5c0-.14-.06-.21-.2-.21h-1.12a.23.23,0,0,1-.26-.25v-1c0-.15.08-.22.25-.22h1.23c.1,0,.15-.06.15-.17l.22-2.57a.34.34,0,0,1,.07-.21.22.22,0,0,1,.16,0h1.49a.2.2,0,0,1,.16.07.28.28,0,0,1,.07.21v2.55a.13.13,0,0,0,.15.15h1.88c.17,0,.25.08.25.24v1c0,.16-.09.25-.28.25Z"></path><path class="cls-1" d="M344.35,106.09a2.89,2.89,0,0,1-2-.67,2.29,2.29,0,0,1-.74-1.76,2.52,2.52,0,0,1,1.23-2.2,6.63,6.63,0,0,1,3.46-.9l.83,0c.18,0,.27-.11.27-.25v-.39a1.45,1.45,0,0,0-.45-1.14,1.7,1.7,0,0,0-1.21-.41,2.19,2.19,0,0,0-2,1.1.53.53,0,0,1-.09.11.14.14,0,0,1-.11,0h-.13l-1.4-.35c-.09,0-.13-.08-.13-.15a.56.56,0,0,1,.06-.22,3,3,0,0,1,1.43-1.43,5.54,5.54,0,0,1,2.43-.49,4.29,4.29,0,0,1,2.74.73,2.56,2.56,0,0,1,.87,2.07v5.87a.54.54,0,0,1-.05.26.29.29,0,0,1-.23.08h-1.42a.24.24,0,0,1-.21-.1.7.7,0,0,1-.1-.3l0-.5q0-.15-.12-.15a.53.53,0,0,0-.21.13A3.9,3.9,0,0,1,344.35,106.09Zm3-4.42a.27.27,0,0,0-.19-.06l-.69,0a4.53,4.53,0,0,0-1.94.52,1.35,1.35,0,0,0-.78,1.21,1.1,1.1,0,0,0,.41.9,1.7,1.7,0,0,0,1.1.34,2.29,2.29,0,0,0,1.51-.54,1.37,1.37,0,0,0,.64-1v-1.18A.34.34,0,0,0,347.33,101.67Z"></path><path class="cls-1" d="M354.32,98.61c-.11,0-.16.06-.16.18v4.45a1.2,1.2,0,0,0,.26.89,1.11,1.11,0,0,0,.84.26h1a.22.22,0,0,1,.17.07.24.24,0,0,1,.07.17l0,.86c0,.19-.11.3-.32.34a13.14,13.14,0,0,1-1.83.1,2.54,2.54,0,0,1-1.73-.53,2,2,0,0,1-.59-1.59v-5a.18.18,0,0,0-.2-.21h-1.12c-.18,0-.26-.09-.26-.25v-1c0-.15.08-.22.25-.22h1.23c.1,0,.15-.06.15-.17l.22-2.57a.44.44,0,0,1,.06-.21.26.26,0,0,1,.17,0H354a.21.21,0,0,1,.17.07.28.28,0,0,1,.07.21v2.55a.13.13,0,0,0,.15.15h1.88c.17,0,.25.08.25.24v1c0,.16-.09.25-.28.25Z"></path><path class="cls-1" d="M359.84,95.45a.43.43,0,0,1-.09.3.43.43,0,0,1-.31.09h-1.51c-.13,0-.21,0-.25-.09a.34.34,0,0,1-.07-.25V93.87c0-.21.09-.32.27-.32h1.71a.26.26,0,0,1,.19.08.33.33,0,0,1,.06.21Zm0,10.11a.36.36,0,0,1-.09.28.43.43,0,0,1-.31.09H358a.37.37,0,0,1-.25-.07.33.33,0,0,1-.07-.23V97.37c0-.19.09-.28.25-.28h1.69c.15,0,.23.09.23.27Z"></path><path class="cls-1" d="M363.3,105.52a4.07,4.07,0,0,1-1.55-1.61,5.34,5.34,0,0,1,0-4.76,4,4,0,0,1,1.57-1.64,4.39,4.39,0,0,1,2.27-.59,4.45,4.45,0,0,1,2.28.59,4.11,4.11,0,0,1,1.55,1.65,5,5,0,0,1,.55,2.38,4.78,4.78,0,0,1-.56,2.35,4.05,4.05,0,0,1-1.56,1.62,4.42,4.42,0,0,1-2.28.58A4.55,4.55,0,0,1,363.3,105.52Zm3.93-1.71a4,4,0,0,0,.56-2.3,4.09,4.09,0,0,0-.57-2.34,1.85,1.85,0,0,0-1.61-.81,1.88,1.88,0,0,0-1.63.81,4.08,4.08,0,0,0-.58,2.34,3.94,3.94,0,0,0,.58,2.3,1.9,1.9,0,0,0,1.63.8A1.85,1.85,0,0,0,367.23,103.81Z"></path><path class="cls-1" d="M371.48,105.86a.33.33,0,0,1-.07-.23V97.37c0-.19.08-.28.24-.28h1.66c.15,0,.22.08.22.25v.87c0,.06,0,.1.05.11a.14.14,0,0,0,.13,0,7.83,7.83,0,0,1,1.46-1,3.29,3.29,0,0,1,1.46-.33,2.65,2.65,0,0,1,1.95.71,2.54,2.54,0,0,1,.7,1.88v6.07a.31.31,0,0,1-.35.35H377.4a.29.29,0,0,1-.22-.07.33.33,0,0,1-.06-.23V99.89a1.37,1.37,0,0,0-.36-1,1.41,1.41,0,0,0-1-.36,2.09,2.09,0,0,0-1.06.27,5.25,5.25,0,0,0-1.08.87v5.93a.37.37,0,0,1-.08.26.47.47,0,0,1-.3.08h-1.49A.33.33,0,0,1,371.48,105.86Z"></path><path class="cls-3" d="M8.86,47.51S19.65,42.73,17,32.67C13.53,19.2-5.65,15.61,4.56.84c-1.83,5.92-1.67,9.54,7.73,17.44,13.59,11.43,14,17,11,23.48-3.32,7.13-10.91,7.75-14.38,5.75"></path><path class="cls-3" d="M7.61,45.89a4.42,4.42,0,0,1-1.22-5.23c.82-1.76,7-3.24,6.08-9.5-.63-4.07-4.09-8.42-4.09-8.42s9.91,8.62,6.31,16.34a13.47,13.47,0,0,1-7.08,6.81"></path><path class="cls-3" d="M7.4,25.39C6.83,20.59,1,19.39,1,16,.3,21.45,5.39,22.14,7.4,25.39"></path><path class="cls-3" d="M24.85,41.33s6-4.88,4.14-11C26.13,21.12,11.79,17,10.78,12.27c-1,4.55,11,10.22,14.05,17.41,2.14,5.06,1.85,7.44,0,11.65"></path><path class="cls-4" d="M9.18,47.51S20,42.73,17.35,32.67C13.85,19.2-5.33,15.61,4.88.84c-1.83,5.92-1.67,9.54,7.73,17.44,13.59,11.43,14,17,11,23.48-3.32,7.13-10.91,7.75-14.38,5.75"></path><path class="cls-1" d="M63.61,76.74A3.62,3.62,0,0,1,62,73.88c0-2.27,2.49-4.11,5.57-4.11s5.56,1.84,5.56,4.11a3.64,3.64,0,0,1-1.57,2.86c7.68,1,13.41,4.92,13.41,9.58H50.2C50.2,81.66,55.92,77.76,63.61,76.74Z"></path><path class="cls-1" d="M96.57,78.36a25.83,25.83,0,0,0,3.78-.36l.54-.08c1.66-.24,2.75-1.42,2.43-2.65s-1.93-2-3.59-1.79l-.59.09c-.56.08-1.42.21-2.14.25a5.4,5.4,0,0,1,2.39-2.36c1.12-.58,2.3-1.15,3.44-1.71,1.67-.82,3.41-1.67,5.08-2.58,2.94-1.59,4.71-3.31,5.43-5.26a8.78,8.78,0,0,0-4.11-10.09,14,14,0,0,0-9-1.31A13.43,13.43,0,0,0,95,52.25c-2.63,1.64-3.37,4.12-4,6.12-.07.25-.14.48-.21.7a62.21,62.21,0,0,0-1.71,7.17c-.24,1.23.92,2.38,2.6,2.56s3.22-.68,3.46-1.92A59.79,59.79,0,0,1,96.8,60.1c.08-.25.16-.51.23-.76.42-1.4.89-3,1.93-3.64a6.49,6.49,0,0,1,2.45-.76,6.79,6.79,0,0,1,4.06.44,5,5,0,0,1,2,5.35c-.33.91-1.39,1.85-3.13,2.79-1.57.85-3.24,1.67-4.86,2.47-1.17.57-2.37,1.16-3.55,1.76a10,10,0,0,0-5,5.52,3.46,3.46,0,0,0,2.5,4.62A10.19,10.19,0,0,0,96.57,78.36Z"></path><path class="cls-1" d="M85.68,57.88H51.62s-25.86-1.39-30.1-6.71H8.2s-3.92.81,0,2.89,17.09,9.68,20.53,12S43.78,77.9,55.38,79.52s24.45,2.89,34.8-3.82,1.72-14.69,0-15.5"></path><path class="cls-1" d="M67.79,50.47c5.26,0,1.56-12.58.14-12.58s-6.47,12.58-.14,12.58"></path><g class="cls-5"><rect class="cls-1" x="61.46" y="37.89" width="11.58" height="12.59"></rect></g><path class="cls-1" d="M85.64,58.5c-3.62-5-10.33-8.28-18-8.28s-14.42,3.33-18,8.28Z"></path><line class="cls-2" x1="85.7" y1="24.1" x2="117.39" y2="62.98"></line><rect class="cls-2" x="98.82" y="18.46" width="5.44" height="50.16" transform="matrix(0.78, -0.63, 0.63, 0.78, -4.67, 73.96)"></rect></svg> 